HIERARCHY
ROOT Hips
{
	OFFSET -14.64140 90.27770 -84.91600
	CHANNELS 6 Xposition Yposition Zposition Zrotation Xrotation Yrotation
	JOINT Spine
	{
		OFFSET 0.00000 13.20850 -1.60436
		CHANNELS 3 Zrotation Xrotation Yrotation
		JOINT Spine1
		{
			OFFSET 0.00000 8.61716 0.00000
			CHANNELS 3 Zrotation Xrotation Yrotation
			JOINT Spine2
			{
				OFFSET 0.00000 8.61717 0.00000
				CHANNELS 3 Zrotation Xrotation Yrotation
				JOINT Spine3
				{
					OFFSET 0.00000 8.61717 0.00000
					CHANNELS 3 Zrotation Xrotation Yrotation
					JOINT Neck
					{
						OFFSET 0.00000 11.07920 1.10792
						CHANNELS 3 Zrotation Xrotation Yrotation
						JOINT Neck1
						{
							OFFSET 0.00000 7.08032 0.00000
							CHANNELS 3 Zrotation Xrotation Yrotation
							JOINT Head
							{
								OFFSET 0.00000 7.08031 0.00000
								CHANNELS 3 Zrotation Xrotation Yrotation
								End site
								{
									OFFSET 0.00000 0.00000 0.00000
								}
							}
						}
					}
					JOINT RightShoulder
					{
						OFFSET -0.01000 7.91373 5.19711
						CHANNELS 3 Zrotation Xrotation Yrotation
						JOINT RightArm
						{
							OFFSET -18.41580 0.00000 0.00000
							CHANNELS 3 Zrotation Xrotation Yrotation
							JOINT RightForeArm
							{
								OFFSET -29.11090 0.00000 0.00000
								CHANNELS 3 Zrotation Xrotation Yrotation
								JOINT RightHand
								{
									OFFSET -24.65040 0.00000 0.00000
									CHANNELS 3 Zrotation Xrotation Yrotation
									JOINT RightHandThumb1
									{
										OFFSET -5.35114 -0.85590 3.97906
										CHANNELS 3 Zrotation Xrotation Yrotation
										JOINT RightHandThumb2
										{
											OFFSET -4.52789 0.00000 0.00000
											CHANNELS 3 Zrotation Xrotation Yrotation
											JOINT RightHandThumb3
											{
												OFFSET -2.46976 0.00000 0.00000
												CHANNELS 3 Zrotation Xrotation Yrotation
												End site
												{
													OFFSET 0.00000 0.00000 0.00000
												}
											}
										}
									}
									JOINT RightHandIndex1
									{
										OFFSET -14.26970 0.00000 2.88139
										CHANNELS 3 Zrotation Xrotation Yrotation
										JOINT RightHandIndex2
										{
											OFFSET -5.48836 0.00000 0.00000
											CHANNELS 3 Zrotation Xrotation Yrotation
											JOINT RightHandIndex3
											{
												OFFSET -3.01859 0.00000 0.00000
												CHANNELS 3 Zrotation Xrotation Yrotation
												End site
												{
													OFFSET 0.00000 0.00000 0.00000
												}
											}
										}
									}
									JOINT RightHandMiddle1
									{
										OFFSET -14.26970 0.00000 -0.09147
										CHANNELS 3 Zrotation Xrotation Yrotation
										JOINT RightHandMiddle2
										{
											OFFSET -6.17441 0.00000 0.00000
											CHANNELS 3 Zrotation Xrotation Yrotation
											JOINT RightHandMiddle3
											{
												OFFSET -3.56743 0.00000 0.00000
												CHANNELS 3 Zrotation Xrotation Yrotation
												End site
												{
													OFFSET 0.00000 0.00000 0.00000
												}
											}
										}
									}
									JOINT RightHandRing1
									{
										OFFSET -12.69180 0.00000 -3.06433
										CHANNELS 3 Zrotation Xrotation Yrotation
										JOINT RightHandRing2
										{
											OFFSET -5.62556 0.00000 0.00000
											CHANNELS 3 Zrotation Xrotation Yrotation
											JOINT RightHandRing3
											{
												OFFSET -3.56744 0.00000 0.00000
												CHANNELS 3 Zrotation Xrotation Yrotation
												End site
												{
													OFFSET 0.00000 0.00000 0.00000
												}
											}
										}
									}
									JOINT RightHandPinky1
									{
										OFFSET -11.11390 0.00000 -6.03719
										CHANNELS 3 Zrotation Xrotation Yrotation
										JOINT RightHandPinky2
										{
											OFFSET -4.52789 0.00000 0.00000
											CHANNELS 3 Zrotation Xrotation Yrotation
											JOINT RightHandPinky3
											{
												OFFSET -2.46976 0.00000 0.00000
												CHANNELS 3 Zrotation Xrotation Yrotation
												End site
												{
													OFFSET 0.00000 0.00000 0.00000
												}
											}
										}
									}
								}
							}
						}
					}
					JOINT LeftShoulder
					{
						OFFSET 0.01000 7.91373 5.19711
						CHANNELS 3 Zrotation Xrotation Yrotation
						JOINT LeftArm
						{
							OFFSET 18.41580 0.00000 0.00000
							CHANNELS 3 Zrotation Xrotation Yrotation
							JOINT LeftForeArm
							{
								OFFSET 29.11090 0.00000 0.00000
								CHANNELS 3 Zrotation Xrotation Yrotation
								JOINT LeftHand
								{
									OFFSET 24.65040 0.00000 0.00000
									CHANNELS 3 Zrotation Xrotation Yrotation
									JOINT LeftHandThumb1
									{
										OFFSET 5.35114 -0.85590 3.97906
										CHANNELS 3 Zrotation Xrotation Yrotation
										JOINT LeftHandThumb2
										{
											OFFSET 4.52789 0.00000 0.00000
											CHANNELS 3 Zrotation Xrotation Yrotation
											JOINT LeftHandThumb3
											{
												OFFSET 2.46977 0.00000 0.00000
												CHANNELS 3 Zrotation Xrotation Yrotation
												End site
												{
													OFFSET 0.00000 0.00000 0.00000
												}
											}
										}
									}
									JOINT LeftHandIndex1
									{
										OFFSET 14.26970 0.00000 2.88139
										CHANNELS 3 Zrotation Xrotation Yrotation
										JOINT LeftHandIndex2
										{
											OFFSET 5.48836 0.00000 0.00000
											CHANNELS 3 Zrotation Xrotation Yrotation
											JOINT LeftHandIndex3
											{
												OFFSET 3.01859 0.00000 0.00000
												CHANNELS 3 Zrotation Xrotation Yrotation
												End site
												{
													OFFSET 0.00000 0.00000 0.00000
												}
											}
										}
									}
									JOINT LeftHandMiddle1
									{
										OFFSET 14.26970 0.00000 -0.09147
										CHANNELS 3 Zrotation Xrotation Yrotation
										JOINT LeftHandMiddle2
										{
											OFFSET 6.17440 0.00000 0.00000
											CHANNELS 3 Zrotation Xrotation Yrotation
											JOINT LeftHandMiddle3
											{
												OFFSET 3.56744 0.00000 0.00000
												CHANNELS 3 Zrotation Xrotation Yrotation
												End site
												{
													OFFSET 0.00000 0.00000 0.00000
												}
											}
										}
									}
									JOINT LeftHandRing1
									{
										OFFSET 12.69180 0.00000 -3.06433
										CHANNELS 3 Zrotation Xrotation Yrotation
										JOINT LeftHandRing2
										{
											OFFSET 5.62556 0.00000 0.00000
											CHANNELS 3 Zrotation Xrotation Yrotation
											JOINT LeftHandRing3
											{
												OFFSET 3.56744 0.00000 0.00000
												CHANNELS 3 Zrotation Xrotation Yrotation
												End site
												{
													OFFSET 0.00000 0.00000 0.00000
												}
											}
										}
									}
									JOINT LeftHandPinky1
									{
										OFFSET 11.11390 0.00000 -6.03719
										CHANNELS 3 Zrotation Xrotation Yrotation
										JOINT LeftHandPinky2
										{
											OFFSET 4.52789 0.00000 0.00000
											CHANNELS 3 Zrotation Xrotation Yrotation
											JOINT LeftHandPinky3
											{
												OFFSET 2.46976 0.00000 0.00000
												CHANNELS 3 Zrotation Xrotation Yrotation
												End site
												{
													OFFSET 0.00000 0.00000 0.00000
												}
											}
										}
									}
								}
							}
						}
					}
					JOINT pCube4
					{
						OFFSET 0.00000 10.91090 1.10792
						CHANNELS 3 Zrotation Xrotation Yrotation
						End site
						{
							OFFSET 0.00000 0.00000 0.00000
						}
					}
				}
			}
		}
	}
	JOINT RightUpLeg
	{
		OFFSET -9.98441 0.00000 0.00000
		CHANNELS 3 Zrotation Xrotation Yrotation
		JOINT RightLeg
		{
			OFFSET 0.00000 -42.11790 0.00000
			CHANNELS 3 Zrotation Xrotation Yrotation
			JOINT RightFoot
			{
				OFFSET 0.00000 -45.00020 -0.00001
				CHANNELS 3 Zrotation Xrotation Yrotation
				JOINT RightForeFoot
				{
					OFFSET 0.00000 -3.74820 0.00000
					CHANNELS 3 Zrotation Xrotation Yrotation
					JOINT RightToeBase
					{
						OFFSET 0.00000 0.06325 14.43120
						CHANNELS 3 Zrotation Xrotation Yrotation
						End site
						{
							OFFSET 0.00000 0.00000 0.00000
						}
					}
				}
			}
		}
	}
	JOINT LeftUpLeg
	{
		OFFSET 9.98441 0.00000 0.00000
		CHANNELS 3 Zrotation Xrotation Yrotation
		JOINT LeftLeg
		{
			OFFSET 0.00000 -42.11800 0.00000
			CHANNELS 3 Zrotation Xrotation Yrotation
			JOINT LeftFoot
			{
				OFFSET 0.00000 -45.00070 0.00000
				CHANNELS 3 Zrotation Xrotation Yrotation
				JOINT LeftForeFoot
				{
					OFFSET 0.00000 -3.74824 0.00000
					CHANNELS 3 Zrotation Xrotation Yrotation
					JOINT LeftToeBase
					{
						OFFSET 0.00000 0.06325 14.43110
						CHANNELS 3 Zrotation Xrotation Yrotation
						End site
						{
							OFFSET 0.00000 0.00000 0.00000
						}
					}
				}
			}
		}
	}
}
MOTION
Frames: 4
Frame Time: 0.050000
-0.03843261052166651 0.03450692859389589 -0.026028234703450517 -0.003937938367471492 0.04265727608232031 0.04551585194919517 2.8692930681638047 3.7136530476076004 -1.7874519160624676 -0.6989501954192028 3.5378282910529664 0.43475471525516396 -0.7872205379210334 -1.145873965290213 1.6772872171122921 -0.8371111468958962 -0.6443291079845264 -0.2636839789373517 0.3369964344196158 11.896129654729563 -1.9843805284197151 0.14344200505137908 -0.8825049562214594 -6.165103929892394 0.9193219557483704 -17.165578198157615 -0.5271852269170002 -9.601312311323827 3.4968160871805227 -15.753936411264304 76.27514626769428 -8.997105449662715 23.437010266915532 22.178106801688976 4.780632485463309 80.16027173182839 17.145121247714894 -0.4904270525221331 -5.924718187300491 4.539803693318533 -0.12690294252825987 -1.5680065767444142 0.0018926647485210185 0.024354503761398808 -56.23300388542205 0.042889473177197386 -0.02806226666128721 -56.27616931168467 -38.75548946574021 -0.03808290619060131 -0.0422337599983458 -0.008375931599907765 -0.04637619889625695 0.04506459105436444 0.022518306919332105 0.01059976714548527 -0.02484669773120067 -36.676057136905264 0.030487740079583582 0.0004963597314686755 0.046350483258879076 0.007635586046501362 0.020966982100057232 0.03470134618027389 0.00332205634694521 0.01956128505001248 -19.73992093038742 -0.015346497237715374 -0.016981305606247752 -0.03514017987941518 -0.01158823212103804 0.01927016897025899 0.029686068257452236 0.008749123430220728 0.03991428263376478 24.090649733124266 -0.012382504479026932 0.022627860562577973 28.84662610117378 0.006656277722160234 0.0142154872224786 28.905743813411544 0.04709618430491526 -0.02594515741847728 7.783828515729092 2.0116796123907195 13.809860795414314 -74.95116320382955 7.21151109104223 -14.114066214121143 -11.133964170414972 12.628612292109592 -54.499992918923915 -21.305712340431793 2.2839402416638737 -0.6615573904292349 -0.43786267713470756 0.07590216221301709 -8.105417228168534 0.04436358905822289 0.027984711855908808 44.58282481756857 -0.02369323765617255 0.04850573091933144 44.5921337954107 12.42381440231591 -0.025772721013713234 -0.04288723705393203 -0.03917356625622136 -0.04892895027075702 0.03256254851508741 0.005491884923762474 0.003610332207612237 -0.03017689894310971 11.058234187694008 0.0455680238451595 -0.0304341360589006 0.038601054719633585 -0.0026504050436434706 0.04148068814683098 -0.015108176040637878 -0.002419750699230258 0.00014508504750831123 4.747312680713908 -0.006972027084248914 -0.006377476991439815 0.01862446118358671 0.022640274321947235 -0.02217159783215239 -0.04865152439974242 -0.04044822474007173 0.014747675810987355 -5.59199736757698 -0.022941042019404317 -0.0029797417725123923 -6.729468976131773 0.033606116656118214 -0.019274806852823612 -6.69499455009211 0.010988349380637625 0.04786720797976367 -0.025179137423990472 -0.014972966935852539 0.026016744107254814 8.090557655117532 3.453221146952455 -19.21488067878063 0.022208723644850138 10.444887838675859 0.02530664853306841 -5.57983899220365 -15.667446155702947 3.1448241775472496 -0.03987386858644877 -0.024392321951947193 0.010650294610671034 0.03840970628836628 4.674335567026223 0.011616918976908315 12.463438004044935 -8.215318077428124 6.893953515703746 0.012267647636948964 46.429236745696045 0.03867200153729019 -4.365188149357614 -14.763015017083783 -3.8759599930219983 0.0054391109230212354 0.01985963863731062 -0.0293217763414488 -0.02192882634159171 -10.768597906777945 0.03262263444898203 
0.006839325019424862 0.014797381450451997 0.039389824349143024 -0.018739939716758854 -0.012048794122781628 0.045756508014943076 2.6340055292265983 3.6871348425079487 -1.7117539277983351 -0.6912335321876218 3.5330619821835176 0.3691335684499149 -0.7943163475500684 -1.0811699073937961 1.847772747524026 -0.8758204980419747 -0.63819061858448 -0.1984363299576807 0.47104820583091667 12.131572460448451 -2.2241572328435675 0.1750611337182831 -0.8280550464750047 -7.00198802599903 0.9836604066531653 -16.956161872203786 -0.6111768215342411 -9.710618508151805 3.5668495092478327 -15.557324055856803 75.3588586620411 -10.586052591367974 25.800759738250534 22.210712768249884 4.899492709625284 80.90710602461456 16.642304042094914 -0.4733722320276152 -5.512677887745429 4.509956275320705 -0.0789143288548381 -1.5959117394222364 0.014339393756403244 -0.010247472387249797 -56.20630331700966 -0.0006157915224687603 0.037908352065269664 -56.22579712978863 -38.762105914703234 0.0313396577745504 0.003415577294009205 0.01653367857814904 -0.0462977689690317 -0.011764854654383775 -0.035469533824066084 -0.030222551406172245 -0.015016359518286513 -36.66813987080968 0.03429396788885512 0.04109993687629141 -0.02407080557076811 0.0019836671126626866 -0.012804059389376649 -0.02938839199613879 0.033402404005440305 0.014728153135857703 -19.773465373309758 -0.0253327185559129 0.03269323324636472 -0.010251651253646016 0.04885327270196646 0.047382318461157764 -0.0038184556970305293 0.026367669008516413 -0.016726234412769565 24.005670207937413 0.044151016377902697 -0.010308543019182692 28.87488673600445 -0.029054780545627393 -0.043962820767067465 28.89888850163217 -0.013192484684587455 -0.04878276205966739 7.428509250171985 1.9637159248662976 13.757594431902342 -75.11776889301403 5.905079311240006 -14.212309609374659 -8.801249649230392 14.500727257132366 -52.61981306167089 -20.789294212563707 4.607219350591316 -2.1074084532880852 -0.5165959686238404 0.06446282412876053 -8.099158475992866 -0.04548101494084411 0.016613060488980157 44.53408167877356 -0.04088546198075913 -0.0006288468495566095 44.595188579466424 12.482583621900545 0.03655990056416111 -0.035845169899638575 -0.014811460807282472 0.046131962920444594 0.0021413425573469924 -0.04409615486978407 -0.04412954297019963 0.006101995764925341 11.05846530697024 0.007387524817450377 0.018635856095755732 0.035472918765505054 -0.01570237861130233 0.012040441774905934 -0.024789434168524693 0.029801394148332685 -0.005067380814206149 4.790023852754928 0.01069907359736282 -0.04605091911752026 -0.001154749985531297 0.02409717189135197 0.045812161127486685 -0.023673353816307648 0.0346837952445786 0.04417311478783813 -5.592958705804904 -0.017362394721860613 -0.01997860349841876 -6.720243905812029 -0.03211833816158025 -0.01943804388758925 -6.738024947397563 0.03908244822538676 0.016857015229441195 0.044865743981123016 0.01071689344070906 -0.03779686482843959 8.086132673363485 3.4445592389418214 -19.246721540023735 0.030820513593648666 10.375406196473303 0.03804780866023055 -5.652343890848034 -15.675195582014863 3.173211316786836 0.024705510719178984 -0.009606371571457053 -0.0004970331106279996 -0.03043283122842405 4.685440611059744 -0.03171237228862492 12.502020050618412 -8.20599376159493 6.87594767679435 -0.01590293544454201 46.407291186583365 0.03908000270589797 -4.3314126843838325 -14.745144206358246 -3.8015874240744862 0.013313051295217973 0.014631920019158128 -0.038082319490454396 -0.013420386471126932 -10.709025099549802 -0.027752355760449605 
-0.04042278890835712 0.0026408298548881133 0.007772321156119618 0.025152423562402538 0.01663821839982382 0.007340100217241043 2.294841648330392 3.643096608701058 -1.6469893517367866 -0.6953592517524947 3.550026816899811 0.3758415189133993 -0.8562622490349423 -1.1437860248225244 2.0134486922015205 -0.9442467478789314 -0.7239170511673803 -0.1924688920440118 0.582366209878562 12.186034835334599 -2.334951040404462 0.16223060102929476 -0.7904622385799099 -7.464238800916787 1.0598155725774867 -16.750009883451227 -0.5817146739106009 -9.877600104312256 3.5633336074277575 -15.506399553092182 74.26080077350706 -12.468775751794428 28.378134786569383 21.511654924868978 4.892885171359958 81.14298477613713 16.407544306556954 -0.4484008056734259 -5.125217021618258 4.490467424845422 -0.1571520367315561 -1.574021044945358 0.023526903122953052 -0.04334909607157595 -56.241583856934014 -0.00815835239731844 0.02717735052859014 -56.25072364261141 -38.805982762372146 -0.03435467201515421 -0.031092144481253352 0.040277077608489684 0.030000997032343348 -0.023856738580414767 0.013203577869750672 0.021943232670185962 -0.04794149702766941 -36.73246270500301 0.037588247148265655 -0.026561743881062926 0.009989399199268856 -0.039653710507401546 -0.020346993881987612 -0.038361375847597114 -6.699484016091092e-05 -0.02761656075268553 -19.796704575560085 0.010152147009125772 -0.0030753325058804582 0.032870687814713674 -0.02030452817288772 0.031170368386388713 0.019308446058371193 0.02867236532567594 0.034153043841747006 24.021507915631606 0.015065675879110755 -0.01025692027855464 28.89880703648149 -0.005128649873596355 0.049619606086583015 28.8380200308191 -0.024199487320409527 0.016541316420847996 7.128898500623937 1.9465878916484132 13.828610970772411 -75.24593774203856 4.355640798127755 -14.102148038564872 -5.333042148579755 16.107104780782137 -49.38494727718466 -20.63052249438906 6.9287332491146945 -3.4066828399749083 -0.4907059443518801 0.10597936012763055 -8.110237448097108 -0.032803036614487316 0.03690013699497529 44.544810468777335 -0.0077995492996109205 0.013257304940837962 44.5659546899895 12.489541783611864 0.03723655295226925 -0.04688846173155922 0.019630073626471782 -0.018554613754407704 -0.02209679084065094 0.017970749858130818 0.016757972642029093 -0.047264482892330546 11.095164664017766 -0.03239434416274317 0.0168381538901468 -0.0006723207553117574 0.011970358445706927 -0.03011390939267452 -0.02322572952782658 0.009919712322007735 0.0076253648941190955 4.771843484483172 -0.041584670984775855 0.011915277009899753 0.04397307284370517 -0.040116709415790805 -0.034319124308968 0.016357114308982693 0.004348970891689452 -0.04793143608630837 -5.602109434718392 0.03375165225816391 -0.021068979077376288 -6.721467698148991 -0.0008070757854272261 0.04224634609558258 -6.730417130832375 -0.023530842849898325 0.01455338998228469 0.004392081837625976 0.0163228905688617 0.02012904752874874 8.03573087206383 3.5288394561670757 -19.24481328668471 -0.03707470736358185 10.40285915865262 -0.03544822882784006 -5.631784547217804 -15.665112452628398 3.211061683051675 0.0038711750589018124 0.019811134456321516 0.030595071694347685 0.011957349505287276 4.664223851176345 -0.02937159623033014 12.470812997020035 -8.192690895671003 6.844127516930691 0.010670381388390117 46.363069525085905 -0.016222951019684236 -4.337431654321353 -14.769875523574328 -3.840970975400629 0.04754171646354204 -0.017196935061466516 0.011060020209522264 0.037040477279541406 -10.708323985773474 -0.04737124913283701 
0.002211825780552413 -0.037474950208163334 -0.029373979636018278 -0.01187448996622862 0.019123713198980857 0.001795765028206238 2.0242835709155913 3.5625976798381798 -1.6369306840278501 -0.6792647369158722 3.5732339982627273 0.4231082208372511 -0.8433972952209624 -1.1824047169348333 2.0689595054531877 -0.9097213800245288 -0.7444133340124488 -0.16575363692668457 0.5474009069389186 12.196199301147939 -2.291029633505855 0.12209804974702515 -0.7435488170855845 -7.44142489155193 1.0425074301754624 -16.586519154734514 -0.6365729694902351 -9.729927433605198 3.541961690987137 -15.400137640001192 73.21117643413646 -13.451531064387884 29.52546273985388 20.429985615457188 4.855407957378083 81.91848712444992 16.61076503907638 -0.4871055138529592 -4.830399211636721 4.551861952128726 -0.16386608854856402 -1.567930793071197 0.042532520903400324 -0.02488066196122631 -56.246674347631114 0.02564939501439574 -0.026455547632791756 -56.24993088257127 -38.75762382828316 0.0483091222207107 0.008115868759858388 -0.01595742969763024 0.0025040258188484626 0.03935936141909213 -0.03045774900477765 0.04902618139744107 -0.022312728563267423 -36.686830328701056 -0.010752316420209575 -0.027431217728365077 0.048161792940072425 -0.043628581850824 -0.004983863540460162 -0.021923794621840752 0.040722786573224694 -0.045784214364602865 -19.793866195829956 -0.02106668651997913 -0.025523707948998133 0.03224510960087329 -0.015958614988950615 0.04556531510451655 -0.024322575535477224 0.0049281314684110275 -0.025098584070701365 24.10093196522037 0.00317937187651987 0.029543625721107372 28.834279008831498 0.0392677458372676 0.034011065661114843 28.9146677495816 0.0007073994904654762 0.020102332711431928 6.708841701796763 1.8359785150805705 13.837434712392648 -75.41136295859435 3.5608800568002974 -13.34163716450014 -1.8033637236808937 17.130175930938037 -46.40442466420131 -20.5244276802936 8.801456654477374 -4.5752424735131685 -0.4330990708745912 0.04252375836120335 -8.102014432915652 -0.0480032705094196 0.04654521563080259 44.519972862465345 0.0076392124560020706 -0.019300140216266887 44.573776948383866 12.473780441292297 0.014547145743360084 -0.04714567437298655 0.004947915146840994 -0.04739857696038752 0.03444406167782053 0.011875129692073312 0.011792201139461557 -0.02952350961843609 11.137198683143632 -0.03371417398786196 0.01916752928033408 -0.03318153929697499 0.015301316519771757 -0.015598989237853897 -0.009311992269520277 -0.04930726321502265 -0.04729045178628235 4.783777234914885 -0.048439793682451396 0.00017176049750508 0.02788659067371596 0.003921671755580616 -0.03517398778082668 0.010190328951614563 -0.00777366623083912 -0.009671259187630964 -5.593953051939056 -0.02732811740430244 -0.0364294595710104 -6.717792705278987 -0.04303397875147408 0.037466498316368155 -6.696589810034678 -0.03136396126680726 0.0014952199457895121 -0.039858749153879235 -0.008239983020933853 0.04971436835788147 8.011378316465608 3.524532014459148 -19.19093670361428 0.017113488149114234 10.384718396819334 0.049383165894082884 -5.601460590739322 -15.61468579339408 3.213217878285978 0.03137910187328358 0.038558156100036864 -0.037036211354099006 0.049008293349889494 4.6805164811543944 0.03604733091389539 12.46669975903076 -8.211071689837679 6.862250368136953 -0.01941336262973348 46.41523922171473 0.01688970863898732 -4.2971056145726365 -14.777851494543505 -3.852057895124142 0.039239647356589094 -0.0385827729839363 0.023302686663942203 0.01827971407782235 -10.712702188433273 -0.0225789910891767 
